<svg xmlns="http://www.w3.org/2000/svg" width="21.808" height="4.500" viewBox="0 0 21.808 4.500" fill="none">
  <path d="M 2.25 4.5 C 1.631 4.5 1.102 4.28 0.661 3.839 C 0.22 3.398 0 2.869 0 2.25 C 0 1.631 0.22 1.102 0.661 0.661 C 1.102 0.22 1.631 0 2.25 0 C 2.869 0 3.398 0.22 3.839 0.661 C 4.28 1.102 4.5 1.631 4.5 2.25 C 4.5 2.869 4.28 3.398 3.839 3.839 C 3.398 4.28 2.869 4.5 2.25 4.5 L 2.25 4.5 M 10.904 4.5 C 10.285 4.5 9.755 4.28 9.315 3.839 C 8.874 3.398 8.654 2.869 8.654 2.25 C 8.654 1.631 8.874 1.102 9.315 0.661 C 9.755 0.22 10.285 0 10.904 0 C 11.523 0 12.052 0.22 12.493 0.661 C 12.933 1.102 13.154 1.631 13.154 2.25 C 13.154 2.869 12.933 3.398 12.493 3.839 C 12.052 4.28 11.523 4.5 10.904 4.5 L 10.904 4.5 M 19.558 4.5 C 18.939 4.5 18.409 4.28 17.969 3.839 C 17.528 3.398 17.308 2.869 17.308 2.25 C 17.308 1.631 17.528 1.102 17.969 0.661 C 18.409 0.22 18.939 0 19.558 0 C 20.176 0 20.706 0.22 21.147 0.661 C 21.587 1.102 21.808 1.631 21.808 2.25 C 21.808 2.869 21.587 3.398 21.147 3.839 C 20.706 4.28 20.176 4.5 19.558 4.5 L 19.558 4.5" fill="currentColor" fill-rule="nonzero"></path>
</svg>