<svg xmlns="http://www.w3.org/2000/svg" width="24.017" height="23.972" viewBox="0 0 24.017 23.972" fill="none">
  <path d="M 3.369 20.595 C 2.312 19.533 1.486 18.311 0.891 16.93 C 0.297 15.549 0 14.121 0 12.647 C 0 11.168 0.283 9.701 0.85 8.245 C 1.416 6.789 2.331 5.43 3.594 4.166 C 4.508 3.253 5.651 2.5 7.025 1.909 C 8.4 1.318 9.956 0.867 11.694 0.558 C 13.433 0.248 15.327 0.068 17.378 0.017 C 19.429 -0.034 21.581 0.032 23.833 0.214 C 23.994 2.364 24.049 4.453 23.998 6.481 C 23.947 8.509 23.77 10.4 23.466 12.154 C 23.162 13.907 22.719 15.487 22.135 16.892 C 21.551 18.296 20.8 19.458 19.881 20.378 C 18.642 21.626 17.318 22.537 15.907 23.111 C 14.497 23.685 13.068 23.972 11.621 23.972 C 10.104 23.972 8.614 23.675 7.151 23.081 C 5.687 22.486 4.427 21.658 3.369 20.595 L 3.369 20.595 M 6.733 20.349 C 7.486 20.822 8.283 21.169 9.123 21.39 C 9.962 21.611 10.796 21.722 11.625 21.722 C 12.781 21.722 13.925 21.493 15.057 21.035 C 16.188 20.578 17.261 19.832 18.277 18.797 C 18.725 18.347 19.179 17.716 19.64 16.903 C 20.101 16.091 20.499 15.028 20.835 13.716 C 21.171 12.403 21.427 10.816 21.601 8.953 C 21.775 7.091 21.81 4.872 21.704 2.297 C 20.479 2.247 19.093 2.233 17.546 2.255 C 15.999 2.277 14.455 2.403 12.916 2.633 C 11.376 2.863 9.922 3.223 8.551 3.713 C 7.181 4.204 6.073 4.872 5.227 5.718 C 4.111 6.833 3.336 7.963 2.902 9.106 C 2.467 10.249 2.25 11.333 2.25 12.358 C 2.25 13.776 2.526 15.057 3.079 16.204 C 3.632 17.35 4.208 18.201 4.806 18.757 C 5.644 16.872 6.823 15.064 8.341 13.332 C 9.859 11.6 11.783 10.089 14.111 8.799 C 12.35 10.335 10.841 12.023 9.585 13.861 C 8.33 15.7 7.379 17.862 6.733 20.349 L 6.733 20.349 M 6.733 20.349 L 6.733 20.349 L 6.733 20.349 L 6.733 20.349 L 6.733 20.349 L 6.733 20.349 L 6.733 20.349 L 6.733 20.349 L 6.733 20.349 L 6.733 20.349 L 6.733 20.349 L 6.733 20.349 M 6.733 20.349 L 6.733 20.349 L 6.733 20.349 L 6.733 20.349 L 6.733 20.349 L 6.733 20.349 L 6.733 20.349 L 6.733 20.349 L 6.733 20.349 L 6.733 20.349 L 6.733 20.349 L 6.733 20.349 L 6.733 20.349 L 6.733 20.349 L 6.733 20.349 L 6.733 20.349 L 6.733 20.349 L 6.733 20.349 L 6.733 20.349 L 6.733 20.349 L 6.733 20.349 L 6.733 20.349" fill="currentColor" fill-rule="nonzero"></path>
</svg>