<svg xmlns="http://www.w3.org/2000/svg" width="8" height="10.500" viewBox="0 0 8 10.500" fill="none">
  <path d="M 1 10.5 C 0.725 10.5 0.49 10.402 0.294 10.206 C 0.098 10.01 0 9.775 0 9.5 L 0 4.5 C 0 4.225 0.098 3.99 0.294 3.794 C 0.49 3.598 0.725 3.5 1 3.5 L 1.5 3.5 L 1.5 2.5 C 1.5 1.808 1.744 1.219 2.231 0.731 C 2.719 0.244 3.308 0 4 0 C 4.692 0 5.281 0.244 5.769 0.731 C 6.256 1.219 6.5 1.808 6.5 2.5 L 6.5 3.5 L 7 3.5 C 7.275 3.5 7.51 3.598 7.706 3.794 C 7.902 3.99 8 4.225 8 4.5 L 8 9.5 C 8 9.775 7.902 10.01 7.706 10.206 C 7.51 10.402 7.275 10.5 7 10.5 L 1 10.5 L 1 10.5 M 1 9.5 L 7 9.5 L 7 9.5 L 7 9.5 L 7 4.5 L 7 4.5 L 7 4.5 L 1 4.5 L 1 4.5 L 1 4.5 L 1 9.5 L 1 9.5 L 1 9.5 L 1 9.5 M 4 8 C 4.275 8 4.51 7.902 4.706 7.706 C 4.902 7.51 5 7.275 5 7 C 5 6.725 4.902 6.49 4.706 6.294 C 4.51 6.098 4.275 6 4 6 C 3.725 6 3.49 6.098 3.294 6.294 C 3.098 6.49 3 6.725 3 7 C 3 7.275 3.098 7.51 3.294 7.706 C 3.49 7.902 3.725 8 4 8 L 4 8 M 2.5 3.5 L 5.5 3.5 L 5.5 2.5 C 5.5 2.083 5.354 1.729 5.063 1.438 C 4.771 1.146 4.417 1 4 1 C 3.583 1 3.229 1.146 2.938 1.438 C 2.646 1.729 2.5 2.083 2.5 2.5 L 2.5 3.5 L 2.5 3.5 M 1 9.5 L 1 9.5 L 1 9.5 L 1 4.5 L 1 4.5 L 1 4.5 L 1 4.5 L 1 4.5 L 1 4.5 L 1 9.5 L 1 9.5 L 1 9.5 L 1 9.5 L 1 9.5" fill="currentColor" fill-rule="nonzero"></path>
</svg>