<svg xmlns="http://www.w3.org/2000/svg" width="15.012" height="20.012" viewBox="0 0 15.012 20.012" fill="none">
  <path d="M 12.012 14 C 12.845 14 13.554 14.292 14.137 14.875 C 14.72 15.458 15.012 16.167 15.012 17 C 15.012 17.833 14.72 18.542 14.137 19.125 C 13.554 19.708 12.845 20 12.012 20 C 11.379 20 10.808 19.817 10.3 19.45 C 9.791 19.083 9.429 18.6 9.212 18 L 2.862 18 L 1.862 19.55 C 1.712 19.783 1.499 19.929 1.224 19.987 C 0.949 20.046 0.695 20 0.462 19.85 C 0.229 19.7 0.083 19.487 0.024 19.212 C -0.034 18.938 0.012 18.683 0.162 18.45 L 4.112 12.4 C 2.912 11.85 1.929 11.004 1.162 9.863 C 0.395 8.721 0.012 7.433 0.012 6 L 14.012 6 C 14.012 7.433 13.629 8.721 12.862 9.863 C 12.095 11.004 11.112 11.85 9.912 12.4 L 10.487 13.3 C 10.137 13.467 9.85 13.633 9.625 13.8 C 9.399 13.967 9.154 14.2 8.887 14.5 L 7.887 12.95 C 7.754 12.983 7.612 13 7.462 13 C 7.312 13 7.162 13 7.012 13 C 6.862 13 6.712 13 6.562 13 C 6.412 13 6.27 12.983 6.137 12.95 L 4.162 16 L 9.212 16 C 9.429 15.4 9.791 14.917 10.3 14.55 C 10.808 14.183 11.379 14 12.012 14 L 12.012 14 M 12.012 18 C 12.295 18 12.533 17.904 12.724 17.712 C 12.916 17.521 13.012 17.283 13.012 17 C 13.012 16.717 12.916 16.479 12.724 16.288 C 12.533 16.096 12.295 16 12.012 16 C 11.729 16 11.491 16.096 11.3 16.288 C 11.108 16.479 11.012 16.717 11.012 17 C 11.012 17.283 11.108 17.521 11.3 17.712 C 11.491 17.904 11.729 18 12.012 18 L 12.012 18 M 7.012 11 C 8.012 11 8.925 10.725 9.75 10.175 C 10.575 9.625 11.195 8.9 11.612 8 L 2.412 8 C 2.845 8.9 3.47 9.625 4.287 10.175 C 5.104 10.725 6.012 11 7.012 11 L 7.012 11 M 4.412 5 C 4.495 4.517 4.483 4.108 4.374 3.775 C 4.266 3.442 4.037 3.058 3.687 2.625 C 3.354 2.192 3.133 1.779 3.024 1.388 C 2.916 0.996 2.904 0.533 2.987 0 L 3.987 0 C 3.904 0.483 3.916 0.887 4.024 1.212 C 4.133 1.537 4.362 1.917 4.712 2.35 C 5.062 2.783 5.287 3.196 5.387 3.588 C 5.487 3.979 5.495 4.45 5.412 5 L 4.412 5 L 4.412 5 M 6.912 5 C 6.995 4.517 6.987 4.108 6.887 3.775 C 6.787 3.442 6.562 3.058 6.212 2.625 C 5.862 2.208 5.633 1.804 5.524 1.413 C 5.416 1.021 5.404 0.55 5.487 0 L 6.487 0 C 6.404 0.483 6.416 0.887 6.524 1.212 C 6.633 1.537 6.862 1.917 7.212 2.35 C 7.545 2.767 7.766 3.171 7.874 3.563 C 7.983 3.954 7.995 4.433 7.912 5 L 6.912 5 L 6.912 5 M 9.412 5 C 9.495 4.517 9.487 4.108 9.387 3.775 C 9.287 3.442 9.062 3.058 8.712 2.625 C 8.362 2.208 8.133 1.804 8.024 1.413 C 7.916 1.021 7.904 0.55 7.987 0 L 8.987 0 C 8.904 0.483 8.916 0.887 9.024 1.212 C 9.133 1.537 9.362 1.917 9.712 2.35 C 10.045 2.767 10.266 3.171 10.375 3.563 C 10.483 3.954 10.495 4.433 10.412 5 L 9.412 5 L 9.412 5 M 7.012 11 L 7.012 11 L 7.012 11 L 7.012 11 L 7.012 11 L 7.012 11 L 7.012 11" fill="currentColor" fill-rule="nonzero"></path>
</svg>