<svg xmlns="http://www.w3.org/2000/svg" width="20" height="20.025" viewBox="0 0 20 20.025" fill="none">
  <path d="M 2 20.025 C 1.45 20.025 0.979 19.829 0.587 19.438 C 0.196 19.046 0 18.575 0 18.025 L 0 4.025 C 0 3.475 0.196 3.004 0.587 2.612 C 0.979 2.221 1.45 2.025 2 2.025 L 10.925 2.025 L 8.925 4.025 L 2 4.025 L 2 4.025 L 2 4.025 L 2 18.025 L 2 18.025 L 2 18.025 L 16 18.025 L 16 18.025 L 16 18.025 L 16 11.075 L 18 9.075 L 18 18.025 C 18 18.575 17.804 19.046 17.413 19.438 C 17.021 19.829 16.55 20.025 16 20.025 L 2 20.025 L 2 20.025 M 9 11.025 L 9 11.025 L 9 11.025 L 9 11.025 L 9 11.025 L 9 11.025 L 9 11.025 L 9 11.025 L 9 11.025 L 9 11.025 L 9 11.025 L 9 11.025 L 9 11.025 L 9 11.025 L 9 11.025 L 9 11.025 M 6 14.025 L 6 9.775 L 15.175 0.6 C 15.375 0.4 15.6 0.25 15.85 0.15 C 16.1 0.05 16.35 0 16.6 0 C 16.867 0 17.121 0.05 17.362 0.15 C 17.604 0.25 17.825 0.4 18.025 0.6 L 19.425 2.025 C 19.608 2.225 19.75 2.446 19.85 2.688 C 19.95 2.929 20 3.175 20 3.425 C 20 3.675 19.954 3.921 19.862 4.162 C 19.771 4.404 19.625 4.625 19.425 4.825 L 10.25 14.025 L 6 14.025 L 6 14.025 M 18.025 3.425 L 18.025 3.425 L 16.625 2.025 L 16.625 2.025 L 18.025 3.425 L 18.025 3.425 M 8 12.025 L 9.4 12.025 L 15.2 6.225 L 14.5 5.525 L 13.775 4.825 L 8 10.6 L 8 12.025 L 8 12.025 M 14.5 5.525 L 13.775 4.825 L 13.775 4.825 L 14.5 5.525 L 15.2 6.225 L 15.2 6.225 L 14.5 5.525 L 14.5 5.525" fill="currentColor" fill-rule="nonzero"></path>
</svg>