<svg xmlns="http://www.w3.org/2000/svg" width="15" height="14.615" viewBox="0 0 15 14.615" fill="none">
  <path d="M 7.5 7 C 6.535 7 5.71 6.658 5.026 5.974 C 4.342 5.29 4 4.465 4 3.5 C 4 2.535 4.342 1.71 5.026 1.026 C 5.71 0.342 6.535 0 7.5 0 C 8.465 0 9.29 0.342 9.974 1.026 C 10.658 1.71 11 2.535 11 3.5 C 11 4.465 10.658 5.29 9.974 5.974 C 9.29 6.658 8.465 7 7.5 7 L 7.5 7 M 0 14.615 L 0 12.392 C 0 11.903 0.133 11.449 0.399 11.032 C 0.665 10.614 1.021 10.294 1.465 10.069 C 2.454 9.585 3.451 9.221 4.457 8.979 C 5.462 8.737 6.477 8.615 7.5 8.615 C 8.523 8.615 9.537 8.737 10.543 8.979 C 11.549 9.221 12.546 9.585 13.535 10.069 C 13.979 10.294 14.335 10.614 14.601 11.032 C 14.867 11.449 15 11.903 15 12.392 L 15 14.615 L 0 14.615 L 0 14.615 M 1.5 13.115 L 13.5 13.115 L 13.5 12.392 C 13.5 12.19 13.441 12.002 13.324 11.83 C 13.207 11.657 13.047 11.517 12.846 11.408 C 11.985 10.983 11.106 10.662 10.211 10.443 C 9.315 10.225 8.412 10.115 7.5 10.115 C 6.588 10.115 5.685 10.225 4.789 10.443 C 3.894 10.662 3.015 10.983 2.154 11.408 C 1.953 11.517 1.793 11.657 1.676 11.83 C 1.559 12.002 1.5 12.19 1.5 12.392 L 1.5 13.115 L 1.5 13.115 M 7.5 5.5 C 8.05 5.5 8.521 5.304 8.912 4.912 C 9.304 4.521 9.5 4.05 9.5 3.5 C 9.5 2.95 9.304 2.479 8.912 2.087 C 8.521 1.696 8.05 1.5 7.5 1.5 C 6.95 1.5 6.479 1.696 6.087 2.087 C 5.696 2.479 5.5 2.95 5.5 3.5 C 5.5 4.05 5.696 4.521 6.087 4.912 C 6.479 5.304 6.95 5.5 7.5 5.5 L 7.5 5.5 M 7.5 3.5 L 7.5 3.5 L 7.5 3.5 L 7.5 3.5 L 7.5 3.5 L 7.5 3.5 L 7.5 3.5 L 7.5 3.5 L 7.5 3.5 L 7.5 3.5 M 7.5 13.115 L 7.5 13.115 L 7.5 13.115 L 7.5 13.115 L 7.5 13.115 L 7.5 13.115 L 7.5 13.115 L 7.5 13.115 L 7.5 13.115 L 7.5 13.115 L 7.5 13.115 L 7.5 13.115 L 7.5 13.115" fill="currentColor" fill-rule="nonzero"></path>
</svg>