<svg xmlns="http://www.w3.org/2000/svg" width="18" height="18" viewBox="0 0 18 18" fill="none">
  <path d="M 16.95 18 C 14.867 18 12.808 17.546 10.775 16.638 C 8.742 15.729 6.892 14.442 5.225 12.775 C 3.558 11.108 2.271 9.258 1.362 7.225 C 0.454 5.192 0 3.133 0 1.05 C 0 0.75 0.1 0.5 0.3 0.3 C 0.5 0.1 0.75 0 1.05 0 L 5.1 0 C 5.333 0 5.542 0.079 5.725 0.237 C 5.908 0.396 6.017 0.583 6.05 0.8 L 6.7 4.3 C 6.733 4.567 6.725 4.792 6.675 4.975 C 6.625 5.158 6.533 5.317 6.4 5.45 L 3.975 7.9 C 4.308 8.517 4.704 9.113 5.162 9.688 C 5.621 10.262 6.125 10.817 6.675 11.35 C 7.192 11.867 7.733 12.346 8.3 12.788 C 8.867 13.229 9.467 13.633 10.1 14 L 12.45 11.65 C 12.6 11.5 12.796 11.387 13.038 11.313 C 13.279 11.238 13.517 11.217 13.75 11.25 L 17.2 11.95 C 17.433 12.017 17.625 12.137 17.775 12.313 C 17.925 12.488 18 12.683 18 12.9 L 18 16.95 C 18 17.25 17.9 17.5 17.7 17.7 C 17.5 17.9 17.25 18 16.95 18 L 16.95 18 M 3.025 6 L 4.675 4.35 L 4.675 4.35 L 4.675 4.35 L 4.25 2 L 4.25 2 L 4.25 2 L 2.025 2 L 2.025 2 L 2.025 2 C 2.108 2.683 2.225 3.358 2.375 4.025 C 2.525 4.692 2.742 5.35 3.025 6 L 3.025 6 M 11.975 14.95 C 12.625 15.233 13.287 15.458 13.962 15.625 C 14.637 15.792 15.317 15.9 16 15.95 L 16 15.95 L 16 15.95 L 16 13.75 L 16 13.75 L 16 13.75 L 13.65 13.275 L 13.65 13.275 L 13.65 13.275 L 11.975 14.95 L 11.975 14.95 M 3.025 6 L 3.025 6 L 3.025 6 L 3.025 6 L 3.025 6 L 3.025 6 L 3.025 6 L 3.025 6 L 3.025 6 L 3.025 6 L 3.025 6 L 3.025 6 L 3.025 6 M 11.975 14.95 L 11.975 14.95 L 11.975 14.95 L 11.975 14.95 L 11.975 14.95 L 11.975 14.95 L 11.975 14.95 L 11.975 14.95 L 11.975 14.95 L 11.975 14.95 L 11.975 14.95 L 11.975 14.95 L 11.975 14.95" fill="currentColor" fill-rule="nonzero"></path>
</svg>