<svg xmlns="http://www.w3.org/2000/svg" width="25.500" height="18" viewBox="0 0 25.500 18" fill="none">
  <path d="M 2.55 18 L 6 12 L 6 12 L 6 12 C 4.35 12 2.938 11.413 1.763 10.238 C 0.588 9.063 0 7.65 0 6 C 0 4.35 0.588 2.938 1.763 1.763 C 2.938 0.588 4.35 0 6 0 C 7.65 0 9.063 0.588 10.238 1.763 C 11.413 2.938 12 4.35 12 6 C 12 6.575 11.931 7.106 11.794 7.594 C 11.656 8.081 11.45 8.55 11.175 9 L 6 18 L 2.55 18 L 2.55 18 M 16.05 18 L 19.5 12 L 19.5 12 L 19.5 12 C 17.85 12 16.438 11.413 15.262 10.238 C 14.087 9.063 13.5 7.65 13.5 6 C 13.5 4.35 14.087 2.938 15.262 1.763 C 16.438 0.588 17.85 0 19.5 0 C 21.15 0 22.563 0.588 23.737 1.763 C 24.912 2.938 25.5 4.35 25.5 6 C 25.5 6.575 25.431 7.106 25.294 7.594 C 25.156 8.081 24.95 8.55 24.675 9 L 19.5 18 L 16.05 18 L 16.05 18 M 6 8.25 C 6.625 8.25 7.156 8.031 7.594 7.594 C 8.031 7.156 8.25 6.625 8.25 6 C 8.25 5.375 8.031 4.844 7.594 4.406 C 7.156 3.969 6.625 3.75 6 3.75 C 5.375 3.75 4.844 3.969 4.406 4.406 C 3.969 4.844 3.75 5.375 3.75 6 C 3.75 6.625 3.969 7.156 4.406 7.594 C 4.844 8.031 5.375 8.25 6 8.25 L 6 8.25 M 19.5 8.25 C 20.125 8.25 20.656 8.031 21.094 7.594 C 21.531 7.156 21.75 6.625 21.75 6 C 21.75 5.375 21.531 4.844 21.094 4.406 C 20.656 3.969 20.125 3.75 19.5 3.75 C 18.875 3.75 18.344 3.969 17.906 4.406 C 17.469 4.844 17.25 5.375 17.25 6 C 17.25 6.625 17.469 7.156 17.906 7.594 C 18.344 8.031 18.875 8.25 19.5 8.25 L 19.5 8.25 M 19.5 6 L 19.5 6 L 19.5 6 L 19.5 6 L 19.5 6 L 19.5 6 L 19.5 6 L 19.5 6 L 19.5 6 L 19.5 6 M 6 6 L 6 6 L 6 6 L 6 6 L 6 6 L 6 6 L 6 6 L 6 6 L 6 6 L 6 6" fill="currentColor" fill-rule="nonzero"></path>
</svg>