<svg xmlns="http://www.w3.org/2000/svg" width="22" height="16" viewBox="0 0 22 16" fill="none">
  <path d="M 5 16 C 4.167 16 3.458 15.708 2.875 15.125 C 2.292 14.542 2 13.833 2 13 L 0 13 L 0 2 C 0 1.45 0.196 0.979 0.587 0.587 C 0.979 0.196 1.45 0 2 0 L 16 0 L 16 4 L 19 4 L 22 8 L 22 13 L 20 13 C 20 13.833 19.708 14.542 19.125 15.125 C 18.542 15.708 17.833 16 17 16 C 16.167 16 15.458 15.708 14.875 15.125 C 14.292 14.542 14 13.833 14 13 L 8 13 C 8 13.833 7.708 14.542 7.125 15.125 C 6.542 15.708 5.833 16 5 16 L 5 16 M 5 14 C 5.283 14 5.521 13.904 5.713 13.712 C 5.904 13.521 6 13.283 6 13 C 6 12.717 5.904 12.479 5.713 12.288 C 5.521 12.096 5.283 12 5 12 C 4.717 12 4.479 12.096 4.287 12.288 C 4.096 12.479 4 12.717 4 13 C 4 13.283 4.096 13.521 4.287 13.712 C 4.479 13.904 4.717 14 5 14 L 5 14 M 2 11 L 2.8 11 C 3.083 10.7 3.408 10.458 3.775 10.275 C 4.142 10.092 4.55 10 5 10 C 5.45 10 5.858 10.092 6.225 10.275 C 6.592 10.458 6.917 10.7 7.2 11 L 14 11 L 14 2 L 2 2 L 2 2 L 2 2 L 2 11 L 2 11 M 17 14 C 17.283 14 17.521 13.904 17.712 13.712 C 17.904 13.521 18 13.283 18 13 C 18 12.717 17.904 12.479 17.712 12.288 C 17.521 12.096 17.283 12 17 12 C 16.717 12 16.479 12.096 16.288 12.288 C 16.096 12.479 16 12.717 16 13 C 16 13.283 16.096 13.521 16.288 13.712 C 16.479 13.904 16.717 14 17 14 L 17 14 M 16 9 L 20.25 9 L 18 6 L 16 6 L 16 9 L 16 9 M 8 6.5 L 8 6.5 L 8 6.5 L 8 6.5 L 8 6.5 L 8 6.5 L 8 6.5 L 8 6.5 L 8 6.5 L 8 6.5 L 8 6.5 L 8 6.5 L 8 6.5" fill="currentColor" fill-rule="nonzero"></path>
</svg>